<svg xmlns="http://www.w3.org/2000/svg" fill="none" viewBox="0 0 58 37"><rect width="57" height="36" x=".5" y=".5" fill="#fff" stroke="#020202" rx="2.5"/><path fill="#000" d="M7.527 16.87c.023-.162.043-.327.07-.49.116-.701.358-1.354.779-1.931a3.554 3.554 0 012.024-1.373c.628-.167 1.24-.115 1.843.11l.916.342c.276.103.553.104.83.003.33-.12.657-.247.989-.362.484-.169.98-.275 1.498-.232.8.069 1.525.328 2.113.897.172.166.316.36.47.537-.171.136-.336.251-.484.383-.644.58-1.034 1.29-1.084 2.167-.034.585.048 1.152.313 1.685.314.629.8 1.086 1.41 1.42.033.018.066.037.098.052.141.07.14.07.093.215-.148.455-.345.89-.58 1.305-.313.55-.655 1.083-1.07 1.564-.205.24-.434.453-.707.618-.454.273-.938.32-1.44.19a4.222 4.222 0 01-.65-.24c-.81-.364-1.612-.352-2.418.007-.283.127-.572.246-.881.304-.47.088-.888-.022-1.273-.299-.387-.278-.687-.637-.969-1.015-.45-.605-.852-1.239-1.151-1.934a9.258 9.258 0 01-.706-2.665c-.01-.093-.022-.185-.033-.278v-.98zm8.898-7.506c.003.12.01.24.007.359-.017.692-.27 1.305-.668 1.858-.404.564-.94.944-1.622 1.105a2.036 2.036 0 01-.686.033 2.01 2.01 0 01.055-.854c.377-1.328 1.248-2.14 2.584-2.46.074-.017.151-.028.227-.041h.103zm7.525 9.926v4.597h-2.1V10.396h5.032c.814 0 1.592.155 2.313.545a3.951 3.951 0 011.782 1.93c.33.746.436 1.531.381 2.34-.05.74-.249 1.435-.64 2.069-.499.809-1.205 1.365-2.091 1.7-.588.222-1.201.308-1.826.31h-2.85zm-.032-1.75h.072c.787 0 1.574.003 2.362-.001.334-.002.663-.034.986-.12.835-.22 1.43-.711 1.708-1.545.182-.544.19-1.103.09-1.663-.152-.862-.626-1.475-1.449-1.802-.443-.175-.909-.223-1.381-.225h-2.388v5.357zm8.422-.542c.009-.287.064-.56.16-.825.318-.888.945-1.482 1.79-1.862.56-.25 1.15-.368 1.763-.402.721-.04 1.43.024 2.114.263.887.307 1.567.85 1.935 1.738.168.406.232.832.232 1.267.003 2.224.001 4.449.001 6.672v.074h-1.93v-1.601l-.021-.004c-.01.012-.024.022-.031.036-.464.834-1.175 1.357-2.082 1.605-1.067.29-2.1.182-3.051-.397-.751-.457-1.174-1.146-1.284-2.02-.065-.512-.022-1.01.184-1.488.236-.545.632-.94 1.14-1.228a4.325 4.325 0 011.733-.541c.68-.067 1.363-.098 2.045-.141.406-.026.811-.045 1.219-.069.01 0 .022-.003.043-.007v-.222c-.01-.297.006-.597-.04-.89-.108-.697-.541-1.116-1.211-1.291a2.784 2.784 0 00-1.64.06c-.585.2-.971.598-1.124 1.206-.012.048-.024.079-.086.079-.598-.004-1.197-.002-1.795-.002a1.14 1.14 0 00-.064-.01zm5.96 2.47c-.038 0-.06-.002-.083 0-.828.05-1.656.096-2.484.155a2.543 2.543 0 00-1.074.3c-.685.38-.816 1.112-.563 1.7.187.438.553.678.998.791a2.73 2.73 0 002.02-.249c.622-.333 1.03-.841 1.15-1.546.042-.249.027-.507.035-.76.004-.128 0-.257 0-.39zm3.829 8.105V25.96c.26 0 .518.006.778-.002.381-.012.735-.108 1.025-.373a1.74 1.74 0 00.46-.696c.109-.292.197-.59.288-.888.01-.034-.004-.079-.016-.115-.544-1.505-1.089-3.01-1.635-4.513l-1.876-5.174c-.009-.024-.016-.048-.026-.081.036-.002.067-.004.096-.004.662 0 1.323.002 1.984-.001.069 0 .1.019.12.086.813 2.62 1.63 5.24 2.443 7.86l.033.09h.024c.01-.027.023-.053.031-.08l1.886-6.058c.19-.606.378-1.211.566-1.817.015-.052.03-.081.096-.081.665.003 1.328.002 1.992.002.023 0 .045.003.076.006l-.235.667-3.436 9.704c-.198.559-.426 1.105-.742 1.608-.303.48-.672.89-1.184 1.155a3.307 3.307 0 01-1.221.348c-.213.021-.43.04-.643.033-.295-.005-.587-.04-.884-.062z"/></svg>