<svg xmlns="http://www.w3.org/2000/svg" fill="none" viewBox="0 0 58 37"><rect width="57" height="36" x=".5" y=".5" fill="#fff" stroke="#5F6368" rx="2.5"/><path fill="#5F6368" d="M27.737 18.288v5.43h-1.723v-13.41h4.57a4.133 4.133 0 012.958 1.16 3.734 3.734 0 011.236 2.831 3.716 3.716 0 01-1.236 2.847c-.8.762-1.785 1.142-2.959 1.142h-2.846zm0-6.33v4.682h2.889a2.277 2.277 0 001.705-.694 2.285 2.285 0 000-3.277 2.247 2.247 0 00-1.705-.712h-2.89v.001zm11.011 2.285c1.274 0 2.279.34 3.016 1.02.737.681 1.105 1.614 1.104 2.8v5.656H41.22v-1.274h-.075c-.713 1.049-1.662 1.573-2.846 1.573-1.011 0-1.857-.3-2.537-.899a2.87 2.87 0 01-1.021-2.247c0-.95.359-1.705 1.076-2.265.718-.561 1.676-.842 2.875-.844 1.023 0 1.865.188 2.527.562v-.394a1.96 1.96 0 00-.711-1.524 2.44 2.44 0 00-1.663-.629c-.963 0-1.724.406-2.285 1.218l-1.518-.955c.835-1.2 2.07-1.798 3.706-1.798zM36.52 20.91a1.377 1.377 0 00.572 1.123c.38.3.854.459 1.338.45a2.747 2.747 0 001.938-.805c.571-.537.857-1.168.857-1.891-.538-.428-1.287-.642-2.248-.642-.7 0-1.283.169-1.75.506-.472.343-.707.759-.707 1.259zm15.808-6.367l-5.753 13.22h-1.779l2.135-4.625-3.783-8.596h1.873l2.734 6.592h.038l2.659-6.591h1.876z"/><path fill="#4285F4" d="M20.774 17.117a9.17 9.17 0 00-.133-1.567h-7.266v2.968h4.162a3.567 3.567 0 01-1.54 2.341v1.927h2.485c1.454-1.341 2.292-3.324 2.292-5.669z"/><path fill="#34A853" d="M13.376 24.646c2.08 0 3.83-.682 5.107-1.86l-2.484-1.926c-.691.47-1.582.737-2.623.737-2.01 0-3.715-1.355-4.325-3.18H6.492V20.4a7.705 7.705 0 006.884 4.245z"/><path fill="#FBBC04" d="M9.051 18.416a4.617 4.617 0 010-2.949v-1.985H6.492a7.705 7.705 0 000 6.92l2.559-1.986z"/><path fill="#EA4335" d="M13.376 12.287a4.183 4.183 0 012.956 1.155l2.199-2.199a7.403 7.403 0 00-5.155-2.006 7.705 7.705 0 00-6.884 4.245l2.559 1.985c.61-1.826 2.316-3.18 4.325-3.18z"/></svg>